<svg xmlns="http://www.w3.org/2000/svg" version="1.1" xmlns:xlink="http://www.w3.org/1999/xlink" xmlns:svgjs="http://svgjs.dev/svgjs" width="100%" height="100%" viewBox="0 0 1000 600"><rect width="1000" height="600" x="0" y="0" fill="#262223"/><g><circle r="166.66666666666666" cx="395.0583140055338" cy="417.2806512303125" fill="#ddc6b6" transform="matrix(0.5473052169565266,0,0,0.5473052169565266,0,71.6201202755775)"/><path d="M459.8638566394432 397.2806688784143L459.8638566394432 397.2806688784143Q459.8638566394432 408.6695569627632 455.6694124913049 418.58622292889135Q451.4749683431667 428.47511111920403 443.97496887298576 436.086221692647Q436.47496940280473 443.6695544902744 426.55830343667657 447.97510974167454Q416.6694152463639 452.28066499307477 405.2527493861995 452.28066499307477L405.2527493861995 452.28066499307477L360.25275256511367 452.28066499307477L360.25275256511367 432.2806664059255L405.2527493861995 432.2806664059255Q414.86385981835735 432.08622197521714 422.7527481499551 427.39177786240015Q430.6694142573684 422.6695559737677 435.2527472669234 414.78066764216993Q439.86385805229395 406.89177931057213 439.86385805229395 397.2806688784143L439.86385805229395 397.2806688784143Q439.86385805229395 387.6695584462565 435.2527472669234 379.66955901139676Q430.6694142573684 371.66955957653704 422.7527481499551 366.9751154637201Q414.86385981835735 362.2806713509031 405.2527493861995 362.2806713509031L405.2527493861995 362.2806713509031L350.25275327153906 362.2806713509031L350.25275327153906 492.2806621673733L330.2527546843898 492.2806621673733L330.2527546843898 342.28067276375384L405.2527493861995 342.28067276375384Q416.6694152463639 342.28067276375384 426.55830343667657 346.58622801515406Q436.47496940280473 350.8917832665542 443.97496887298576 358.47511606418163Q451.4749683431667 366.0862266376245 455.6694124913049 375.97511482793726Q459.8638566394432 385.8917807940654 459.8638566394432 397.2806688784143Z " fill="#262223" transform="matrix(0.5473052169565266,0,0,0.5473052169565266,0,71.6201202755775)"/><path d="M747.3828595424471 417.28067077832765L747.3828595424471 417.28067077832765Q747.3828595424471 426.2718976450361 744.0714564769032 434.10084396556033Q740.7600534113594 441.9078604644584 734.8390015723076 447.9166315900148Q728.9179497332556 453.9034728939451 721.0890034127314 457.3025952459934Q713.2819869138333 460.70171759804174 704.2688302254987 460.70171759804174L704.2688302254987 460.70171759804174L668.7425191911872 460.70171759804174L668.7425191911872 444.9122460272366L704.2688302254987 444.9122460272366Q711.8565485081356 444.7587372758538 718.0846178499531 441.0525974210398Q724.3346170133968 437.3245277445997 727.9530375817063 431.0964584027821Q731.593387971642 424.86838906096455 731.593387971642 417.28067077832765L731.593387971642 417.28067077832765Q731.593387971642 409.69295249569075 727.9530375817063 403.37716386736867Q724.3346170133968 397.06137523904664 718.0846178499531 393.3552353842327Q711.8565485081356 389.6490955294187 704.2688302254987 389.6490955294187L704.2688302254987 389.6490955294187L660.8477834057846 389.6490955294187L660.8477834057846 492.280660739652L645.0583118349795 492.280660739652L645.0583118349795 373.85962395861355L704.2688302254987 373.85962395861355Q713.2819869138333 373.85962395861355 721.0890034127314 377.2587463106619Q728.9179497332556 380.6578686627102 734.8390015723076 386.6447099666405Q740.7600534113594 392.6534810921969 744.0714564769032 400.46049759109496Q747.3828595424471 408.2894439116192 747.3828595424471 417.28067077832765ZM850.8038983312207 373.85962395861355L850.8038983312207 389.6490955294187L791.5933799407014 389.6490955294187Q786.7030297180771 389.6490955294187 783.2161880795243 393.1140073463454Q779.7512762625976 396.60084898489816 779.7512762625976 401.4911992075225L779.7512762625976 401.4911992075225L779.7512762625976 460.70171759804174L763.9618046917925 460.70171759804174L763.9618046917925 401.4911992075225Q763.9618046917925 393.7499721735028 767.6679445466065 387.5219028316852Q771.3740844014205 381.2719036682415 777.6898730297426 377.56576381342757Q784.0056616580646 373.85962395861355 791.5933799407014 373.85962395861355L791.5933799407014 373.85962395861355L850.8038983312207 373.85962395861355ZM968.5889702851017 417.28067077832765L968.5889702851017 417.28067077832765Q968.5889702851017 426.2718976450361 965.2775672195578 434.10084396556033Q961.966164154014 441.9078604644584 956.045112314962 447.9166315900148Q950.12406047591 453.9034728939451 942.2951141553858 457.3025952459934Q934.4880976564878 460.70171759804174 925.4968707897793 460.70171759804174L925.4968707897793 460.70171759804174L901.1766986064142 460.70171759804174Q892.1635419180797 460.70171759804174 884.3565254191815 457.3025952459934Q876.5495089202834 453.9034728939451 870.6284570812315 447.9166315900148Q864.7074052421797 441.9078604644584 861.3740723550096 434.10084396556033Q858.0626692894658 426.2718976450361 858.0626692894658 417.28067077832765L858.0626692894658 417.28067077832765Q858.0626692894658 408.2894439116192 861.3740723550096 400.46049759109496Q864.7074052421797 392.6534810921969 870.6284570812315 386.6447099666405Q876.5495089202834 380.6578686627102 884.3565254191815 377.2587463106619Q892.1635419180797 373.85962395861355 901.1766986064142 373.85962395861355L901.1766986064142 373.85962395861355L925.4968707897793 373.85962395861355Q934.4880976564878 373.85962395861355 942.2951141553858 377.2587463106619Q950.12406047591 380.6578686627102 956.045112314962 386.6447099666405Q961.966164154014 392.6534810921969 965.2775672195578 400.46049759109496Q968.5889702851017 408.2894439116192 968.5889702851017 417.28067077832765ZM952.7994987142965 417.28067077832765L952.7994987142965 417.28067077832765Q952.7994987142965 409.69295249569075 949.181078145987 403.46488315387313Q945.5407277560514 397.2368138120556 939.3126584142339 393.44295467073715Q933.0626592507901 389.6490955294187 925.4968707897793 389.6490955294187L925.4968707897793 389.6490955294187L901.1766986064142 389.6490955294187Q893.5889803237774 389.6490955294187 887.4267004468381 393.44295467073715Q881.286350391525 397.2368138120556 877.558280715085 403.46488315387313Q873.8521408602709 409.69295249569075 873.8521408602709 417.28067077832765L873.8521408602709 417.28067077832765Q873.8521408602709 424.86838906096455 877.558280715085 431.0964584027821Q881.286350391525 437.3245277445997 887.4267004468381 441.11838688591814Q893.5889803237774 444.9122460272366 901.1766986064142 444.9122460272366L901.1766986064142 444.9122460272366L925.4968707897793 444.9122460272366Q933.0626592507901 444.9122460272366 939.3126584142339 441.11838688591814Q945.5407277560514 437.3245277445997 949.181078145987 431.0964584027821Q952.7994987142965 424.86838906096455 952.7994987142965 417.28067077832765ZM1072.6459739010324 342.2806808170033L1072.6459739010324 358.07015238780843L1028.9179095785528 358.07015238780843Q1021.3301912959159 358.07015238780843 1015.1679114189767 361.8640115291269Q1009.0056315420375 365.65787067044533 1005.2994916872235 371.8859400122629Q1001.5933518324096 378.1140093540805 1001.5933518324096 385.7017276367174L1001.5933518324096 385.7017276367174L1001.5933518324096 460.70171759804174L985.8038802616045 460.70171759804174L985.8038802616045 381.75435974401614Q985.8038802616045 373.37716788283893 989.2687920785311 366.2061162110983Q992.7556337170839 359.01313471773153 998.8301943075187 353.728047705837Q1004.9047548979534 348.44296069394255 1012.6459819319732 345.35085584465986Q1020.3872089659928 342.2806808170033 1028.9179095785528 342.2806808170033L1028.9179095785528 342.2806808170033L1072.6459739010324 342.2806808170033ZM1072.6459739010324 381.75435974401614L1072.6459739010324 397.54383131482126L1009.4880876178122 397.54383131482126L1009.4880876178122 381.75435974401614L1072.6459739010324 381.75435974401614ZM1106.286320275498 354.12278449510717L1106.286320275498 354.12278449510717Q1106.286320275498 359.01313471773153 1102.7994786369452 362.4999763562843Q1099.3345668200186 365.964888173211 1094.4442165973942 365.964888173211L1094.4442165973942 365.964888173211Q1089.5319365531436 365.964888173211 1086.067024736217 362.4999763562843Q1082.6021129192902 359.01313471773153 1082.6021129192902 354.12278449510717L1082.6021129192902 354.12278449510717Q1082.6021129192902 349.2324342724828 1086.067024736217 345.74559263393Q1089.5319365531436 342.2806808170033 1094.4442165973942 342.2806808170033L1094.4442165973942 342.2806808170033Q1099.3345668200186 342.2806808170033 1102.7994786369452 345.74559263393Q1106.286320275498 349.2324342724828 1106.286320275498 354.12278449510717ZM1102.3389523827968 373.85962395861355L1102.3389523827968 460.70171759804174L1086.5494808119915 460.70171759804174L1086.5494808119915 373.85962395861355L1102.3389523827968 373.85962395861355ZM1155.5406996477595 389.6490955294187L1155.5406996477595 460.70171759804174L1139.7512280769542 460.70171759804174L1139.7512280769542 389.6490955294187L1116.0670207207468 389.6490955294187L1116.0670207207468 373.85962395861355L1139.7512280769542 373.85962395861355L1139.7512280769542 342.2806808170033L1155.5406996477595 342.2806808170033L1155.5406996477595 373.85962395861355L1210.8038501455776 373.85962395861355L1210.8038501455776 389.6490955294187L1155.5406996477595 389.6490955294187ZM1254.2248969652915 444.9122460272366L1254.2248969652915 460.70171759804174L1250.2775290725904 460.70171759804174Q1242.6898107899533 460.70171759804174 1236.3740221616313 456.9955777432278Q1230.0582335333092 453.2894378884138 1226.3520936784953 447.03943872497007Q1222.6459538236813 440.8113693831525 1222.6459538236813 433.07014234913277L1222.6459538236813 433.07014234913277L1222.6459538236813 342.2806808170033L1238.4354253944864 342.2806808170033L1238.4354253944864 433.07014234913277Q1238.4354253944864 437.96049257175713 1241.900337211413 441.4473342103099Q1245.387178849966 444.9122460272366 1250.2775290725904 444.9122460272366L1250.2775290725904 444.9122460272366L1254.2248969652915 444.9122460272366ZM1369.0055833563945 401.4911992075225L1369.0055833563945 401.4911992075225Q1369.0055833563945 409.0789174901594 1365.2994435015803 415.3947061184815Q1361.5933036467666 421.71049474680353 1355.3652343049487 425.4166346016175Q1349.115235141505 429.1227744564315 1341.3740081074855 429.1227744564315L1341.3740081074855 429.1227744564315L1280.9134898842774 429.1227744564315Q1284.2248929498212 436.07452791191093 1290.7819096160306 440.48242205876073Q1297.33892628224 444.9122460272366 1305.5406795704082 444.9122460272366L1305.5406795704082 444.9122460272366L1357.1634796782903 444.9122460272366L1357.1634796782903 460.70171759804174L1305.5406795704082 460.70171759804174Q1296.5494527036997 460.70171759804174 1288.7205063831755 457.3025952459934Q1280.9134898842774 453.9034728939451 1274.9924380452255 447.9166315900148Q1269.0713862061737 441.9078604644584 1265.7599831406299 434.10084396556033Q1262.4266502534597 426.2718976450361 1262.4266502534597 417.28067077832765L1262.4266502534597 417.28067077832765Q1262.4266502534597 408.2894439116192 1265.7599831406299 400.46049759109496Q1269.0713862061737 392.6534810921969 1274.9924380452255 386.6447099666405Q1280.9134898842774 380.6578686627102 1288.7205063831755 377.2587463106619Q1296.5494527036997 373.85962395861355 1305.5406795704082 373.85962395861355L1305.5406795704082 373.85962395861355L1341.3740081074855 373.85962395861355Q1349.115235141505 373.85962395861355 1355.3652343049487 377.56576381342757Q1361.5933036467666 381.2719036682415 1365.2994435015803 387.5219028316852Q1369.0055833563945 393.7499721735028 1369.0055833563945 401.4911992075225ZM1278.5450691486565 413.3333028856264L1341.3740081074855 413.3333028856264Q1346.2862881517358 413.3333028856264 1349.7511999686624 409.8683910686997Q1353.2161117855892 406.3815494301469 1353.2161117855892 401.4911992075225L1353.2161117855892 401.4911992075225Q1353.2161117855892 396.60084898489816 1349.7511999686624 393.1140073463454Q1346.2862881517358 389.6490955294187 1341.3740081074855 389.6490955294187L1341.3740081074855 389.6490955294187L1305.5406795704082 389.6490955294187Q1298.5889261149287 389.6490955294187 1292.8213830272596 392.8069898435797Q1287.0757697612166 395.96488415774076 1283.281910619898 401.3376904561397Q1279.4880514785798 406.71049675453867 1278.5450691486565 413.3333028856264L1278.5450691486565 413.3333028856264ZM1400.277508995239 389.6490955294187L1400.277508995239 460.70171759804174L1384.4880374244337 460.70171759804174L1384.4880374244337 373.85962395861355L1443.698555814953 373.85962395861355Q1452.6897826816614 373.85962395861355 1460.5187290021856 377.2587463106619Q1468.3257455010837 380.6578686627102 1474.2467973401356 386.6447099666405Q1480.1678491791877 392.6534810921969 1483.4792522447315 400.46049759109496Q1486.8125851319014 408.2894439116192 1486.8125851319014 417.28067077832765L1486.8125851319014 417.28067077832765L1486.8125851319014 460.70171759804174L1471.0231135610964 460.70171759804174L1471.0231135610964 417.28067077832765Q1471.0231135610964 409.69295249569075 1467.3827631711608 403.46488315387313Q1463.7424127812249 397.2368138120556 1457.5143434394074 393.44295467073715Q1451.28627409759 389.6490955294187 1443.698555814953 389.6490955294187L1443.698555814953 389.6490955294187L1400.277508995239 389.6490955294187ZM1598.7423947116088 433.07014234913277L1598.7423947116088 433.07014234913277Q1598.7423947116088 440.8113693831525 1595.0362548567948 447.03943872497007Q1591.3301150019809 453.2894378884138 1585.1020456601632 456.9955777432278Q1578.8520464967196 460.70171759804174 1571.1108194626997 460.70171759804174L1571.1108194626997 460.70171759804174L1504.0055652867782 460.70171759804174L1504.0055652867782 444.9122460272366L1571.1108194626997 444.9122460272366Q1576.0230995069503 444.9122460272366 1579.4880113238771 441.4473342103099Q1582.9529231408037 437.96049257175713 1582.9529231408037 433.07014234913277L1582.9529231408037 433.07014234913277Q1582.9529231408037 428.1797921265084 1579.4880113238771 424.6929504879556Q1576.0230995069503 421.2280386710289 1571.1108194626997 421.2280386710289L1571.1108194626997 421.2280386710289L1527.6897726429859 421.2280386710289Q1521.2204752632808 421.2280386710289 1515.7818795000037 418.0701443568679Q1510.3213539151002 414.9122500427069 1507.1634596009392 409.4736542794296Q1504.0055652867782 404.01312869452613 1504.0055652867782 397.54383131482126L1504.0055652867782 397.54383131482126Q1504.0055652867782 390.92102518373355 1507.1634596009392 385.54821888533456Q1510.3213539151002 380.1754125869356 1515.7818795000037 377.01751827277457Q1521.2204752632808 373.85962395861355 1527.6897726429859 373.85962395861355L1527.6897726429859 373.85962395861355L1590.8476589262061 373.85962395861355L1590.8476589262061 389.6490955294187L1527.6897726429859 389.6490955294187Q1524.378369577442 389.6490955294187 1522.0976681283257 391.92979697853497Q1519.7950368575832 394.2324282492774 1519.7950368575832 397.54383131482126L1519.7950368575832 397.54383131482126Q1519.7950368575832 400.8552343803651 1522.0976681283257 403.1578656511075Q1524.378369577442 405.4385671002238 1527.6897726429859 405.4385671002238L1527.6897726429859 405.4385671002238L1571.1108194626997 405.4385671002238Q1578.8520464967196 405.4385671002238 1585.1020456601632 409.14470695503775Q1591.3301150019809 412.85084680985176 1595.0362548567948 419.10084597329546Q1598.7423947116088 425.3289153151131 1598.7423947116088 433.07014234913277Z " fill="#ddc6b6" transform="matrix(0.5473052169565266,0,0,0.5473052169565266,0,71.6201202755775)"/></g></svg>